<?xml version="1.0" encoding="utf-8"?>
<!-- Generator: Adobe Illustrator 24.1.2, SVG Export Plug-In . SVG Version: 6.00 Build 0)  -->
<svg version="1.1" id="Layer_1" xmlns="http://www.w3.org/2000/svg" xmlns:xlink="http://www.w3.org/1999/xlink" x="0px" y="0px"
	 viewBox="0 0 50 50" style="enable-background:new 0 0 50 50;" xml:space="preserve">
<style type="text/css">
	.st0{fill:none;stroke:#FF0000;stroke-width:2;stroke-miterlimit:10;}
	.st1{fill:#FF0000;stroke:#FF0000;stroke-miterlimit:10;}
</style>
<ellipse transform="matrix(0.9991 -0.0418 0.0418 0.9991 -1.1209 1.1065)" class="st0" cx="25.92" cy="27.37" rx="19.32" ry="18.54"/>
<line class="st0" x1="13.85" y1="41.13" x2="9.93" y2="49.28"/>
<line class="st0" x1="37.75" y1="40.83" x2="42.99" y2="48.98"/>
<line class="st0" x1="25.26" y1="17.34" x2="25.35" y2="30.1"/>
<line class="st0" x1="24.49" y1="29.08" x2="40.41" y2="29.25"/>
<path class="st1" d="M13.43,9.34L6,12.53C4.31,8.58,6.26,3.9,10.34,2.14c3.95-1.7,8.56-0.06,10.38,3.69L13.43,9.34z"/>
<path class="st1" d="M36.85,8.82l-7.36-3.34c1.78-3.91,6.56-5.62,10.6-3.79c3.92,1.78,5.81,6.29,4.26,10.16L36.85,8.82z"/>
</svg>
