<?xml version="1.0" encoding="utf-8"?>
<!-- Generator: Adobe Illustrator 24.1.2, SVG Export Plug-In . SVG Version: 6.00 Build 0)  -->
<svg version="1.1" id="Layer_1" xmlns="http://www.w3.org/2000/svg" xmlns:xlink="http://www.w3.org/1999/xlink" x="0px" y="0px"
	 viewBox="0 0 50 50" style="enable-background:new 0 0 50 50;" xml:space="preserve">
<style type="text/css">
	.st0{fill:none;stroke:#FF0000;stroke-width:2;stroke-miterlimit:10;}
	.st1{fill:#FF0000;stroke:#FF0000;stroke-miterlimit:10;}
	.st2{fill:none;stroke:#FF0000;stroke-miterlimit:10;}
	.st3{fill:#FF0000;}
</style>
<ellipse transform="matrix(0.9991 -0.0418 0.0418 0.9991 -1.1244 0.9394)" class="st0" cx="21.92" cy="27.37" rx="19.32" ry="18.54"/>
<line class="st0" x1="9.85" y1="41.13" x2="5.93" y2="49.28"/>
<line class="st0" x1="33.75" y1="40.83" x2="38.99" y2="48.98"/>
<line class="st0" x1="21.26" y1="17.34" x2="21.35" y2="30.1"/>
<line class="st0" x1="20.49" y1="29.08" x2="36.41" y2="29.25"/>
<path class="st1" d="M9.43,9.34L2,12.53C0.31,8.58,2.26,3.9,6.34,2.14c3.95-1.7,8.56-0.06,10.38,3.69L9.43,9.34z"/>
<path class="st1" d="M32.85,8.82l-7.36-3.34c1.78-3.91,6.56-5.62,10.6-3.79c3.92,1.78,5.81,6.29,4.26,10.16L32.85,8.82z"/>
<g>
	<line class="st1" x1="38" y1="42" x2="48.88" y2="42"/>
	<line class="st2" x1="38" y1="42" x2="42.84" y2="48.05"/>
	<line class="st2" x1="48.88" y1="42" x2="44.05" y2="48.05"/>
	<g>
		<g>
			<path class="st3" d="M38.05,42.51c0.64,0,0.64-1,0-1C37.41,41.51,37.41,42.51,38.05,42.51L38.05,42.51z"/>
		</g>
	</g>
	<g>
		<g>
			<path class="st3" d="M48.71,42.58c0.64,0,0.64-1,0-1C48.07,41.58,48.07,42.58,48.71,42.58L48.71,42.58z"/>
		</g>
	</g>
	<g>
		<g>
			<path class="st3" d="M43.38,48.64c1.29,0,1.29-2,0-2C42.09,46.64,42.09,48.64,43.38,48.64L43.38,48.64z"/>
		</g>
	</g>
	<g>
		<g>
			<path class="st3" d="M40.45,44.23c1.12-0.04,2.35-0.06,3.36,0.1c1.15,0.18,2.35,0.39,3.47-0.06c0.4-0.16,0.76-0.49,0.73-0.96
				c-0.02-0.41-0.29-0.89-0.73-0.96c-0.53-0.09-1.02,0.01-1.41,0.4c-0.28,0.27-0.44,0.61-0.63,0.94c-0.38,0.67-0.73,1.15-1.25,1.69
				c-0.05,0.05-0.1,0.09-0.14,0.14c-0.2,0.21,0.12-0.09-0.11,0.09c-0.05,0.04-0.12,0.08-0.02,0.02c-0.1,0.06-0.09,0.03,0.04,0.02
				c-0.04,0-0.15-0.04-0.05,0c-0.09-0.04-0.19-0.1-0.27-0.16c0.08,0.06-0.03-0.03-0.05-0.04c-0.07-0.06-0.13-0.12-0.2-0.18
				c-0.62-0.6-1.22-1.22-1.84-1.83c-0.32,0.56-0.65,1.11-0.97,1.67c1.02,0.21,2.04,0.46,3.04,0.75c0.5,0.15,1.11-0.18,1.23-0.7
				c0.12-0.53-0.16-1.07-0.7-1.23c-1-0.29-2.02-0.54-3.04-0.75c-0.44-0.09-0.89,0.06-1.13,0.46c-0.22,0.38-0.16,0.9,0.16,1.21
				c0.62,0.62,1.23,1.26,1.87,1.87c0.68,0.63,1.58,1.15,2.53,0.8c0.82-0.3,1.4-1.07,1.92-1.74c0.24-0.31,0.46-0.64,0.66-0.98
				c0.09-0.16,0.17-0.32,0.26-0.47c0.02-0.04,0.05-0.08,0.07-0.12c0.04-0.06,0.03-0.05-0.02,0.02c0.02-0.02,0.04-0.04,0.06-0.06
				c-0.14,0.13-0.32,0.17-0.53,0.11c0-0.64,0-1.29,0-1.93c-0.89,0.36-1.8,0.14-2.76,0.01c-1.18-0.17-2.35-0.16-3.53-0.12
				c-0.52,0.02-1.02,0.45-1,1C39.48,43.75,39.89,44.25,40.45,44.23L40.45,44.23z"/>
		</g>
	</g>
	<g>
		<g>
			<path class="st3" d="M43.91,48.66c0.64,0,0.64-1,0-1C43.26,47.66,43.26,48.66,43.91,48.66L43.91,48.66z"/>
		</g>
	</g>
</g>
<g>
	<g>
		<path class="st3" d="M39.92,42.72c0.48,0.05,0.95,0.06,1.43,0.03c0.13-0.01,0.26-0.05,0.35-0.15c0.09-0.09,0.15-0.23,0.15-0.35
			c-0.01-0.26-0.22-0.52-0.5-0.5c-0.48,0.03-0.95,0.02-1.43-0.03c-0.12-0.01-0.27,0.07-0.35,0.15c-0.09,0.09-0.15,0.23-0.15,0.35
			c0.01,0.13,0.05,0.26,0.15,0.35C39.67,42.67,39.78,42.71,39.92,42.72L39.92,42.72z"/>
	</g>
</g>
<g>
	<g>
		<path class="st3" d="M39.24,43.07c0.43,0.1,0.78,0.33,1.16,0.55c0.42,0.24,0.85,0.45,1.29,0.64c0.85,0.36,1.76,0.67,2.68,0.77
			c0.8,0.09,1.46-0.18,2.07-0.67c0.54-0.43,1-1.01,1.7-1.17c0.63-0.14,0.36-1.1-0.27-0.96c-1.36,0.3-2.04,2.01-3.52,1.8
			c-0.85-0.12-1.71-0.42-2.49-0.78c-0.79-0.36-1.5-0.94-2.35-1.14C38.88,41.96,38.61,42.92,39.24,43.07L39.24,43.07z"/>
	</g>
</g>
<g>
	<g>
		<path class="st3" d="M42.33,48.23c0.11,0.09,0.22,0.17,0.36,0.23c0.13,0.06,0.26,0.11,0.41,0.14c0.29,0.05,0.58,0.05,0.86-0.05
			c0.12-0.04,0.23-0.11,0.3-0.23c0.06-0.11,0.09-0.27,0.05-0.39c-0.04-0.12-0.11-0.24-0.23-0.3c-0.11-0.06-0.26-0.09-0.39-0.05
			c-0.07,0.02-0.15,0.04-0.22,0.05c0.04-0.01,0.09-0.01,0.13-0.02c-0.11,0.01-0.22,0.01-0.33,0c0.04,0.01,0.09,0.01,0.13,0.02
			c-0.11-0.02-0.21-0.04-0.31-0.08c0.04,0.02,0.08,0.03,0.12,0.05c-0.09-0.04-0.18-0.09-0.26-0.15c0.03,0.03,0.07,0.05,0.1,0.08
			c0,0-0.01-0.01-0.01-0.01c-0.05-0.05-0.1-0.08-0.16-0.1c-0.06-0.03-0.12-0.05-0.19-0.04c-0.12,0-0.27,0.05-0.35,0.15
			c-0.09,0.1-0.15,0.22-0.15,0.35C42.19,48,42.23,48.15,42.33,48.23L42.33,48.23z"/>
	</g>
</g>
<g>
	<g>
		<path class="st3" d="M42.6,48.4c0.11,0.1,0.23,0.19,0.37,0.26c0.13,0.07,0.28,0.13,0.42,0.16c0.07,0.02,0.13,0.02,0.2,0.01
			c0.07,0,0.13-0.02,0.19-0.06c0.06-0.03,0.11-0.07,0.14-0.13c0.04-0.05,0.07-0.1,0.09-0.17c0.03-0.13,0.02-0.27-0.05-0.39
			c-0.07-0.11-0.17-0.2-0.3-0.23c-0.08-0.02-0.15-0.04-0.23-0.07c0.04,0.02,0.08,0.03,0.12,0.05c-0.1-0.04-0.19-0.1-0.28-0.16
			c0.03,0.03,0.07,0.05,0.1,0.08c-0.02-0.02-0.04-0.04-0.07-0.05c-0.05-0.05-0.1-0.08-0.16-0.1c-0.06-0.03-0.12-0.05-0.19-0.04
			c-0.07,0-0.13,0.01-0.19,0.04c-0.06,0.02-0.12,0.05-0.16,0.1c-0.09,0.1-0.15,0.22-0.15,0.35C42.46,48.17,42.5,48.31,42.6,48.4
			L42.6,48.4z"/>
	</g>
</g>
<g>
	<g>
		<path class="st3" d="M43.9,47.5c-0.22,0.12-0.44,0.25-0.66,0.37c-0.11,0.06-0.2,0.18-0.23,0.3c-0.02,0.07-0.02,0.13-0.01,0.2
			c0,0.07,0.02,0.13,0.06,0.19c0.07,0.11,0.17,0.2,0.3,0.23c0.13,0.03,0.27,0.02,0.39-0.05c0.22-0.12,0.44-0.25,0.66-0.37
			c0.11-0.06,0.2-0.18,0.23-0.3c0.02-0.07,0.02-0.13,0.01-0.2c0-0.07-0.02-0.13-0.06-0.19c-0.07-0.11-0.17-0.2-0.3-0.23
			C44.16,47.42,44.02,47.43,43.9,47.5L43.9,47.5z"/>
	</g>
</g>
<g>
	<g>
		<path class="st3" d="M43.65,48.78c0.64,0,0.64-1,0-1C43,47.78,43,48.78,43.65,48.78L43.65,48.78z"/>
	</g>
</g>
<g>
	<g>
		<path class="st3" d="M48.86,42.57c0.64,0,0.64-1,0-1C48.22,41.57,48.22,42.57,48.86,42.57L48.86,42.57z"/>
	</g>
</g>
</svg>
