<?xml version="1.0" encoding="utf-8"?>
<!-- Generator: Adobe Illustrator 24.1.2, SVG Export Plug-In . SVG Version: 6.00 Build 0)  -->
<svg version="1.1" id="Layer_1" xmlns="http://www.w3.org/2000/svg" xmlns:xlink="http://www.w3.org/1999/xlink" x="0px" y="0px"
	 viewBox="0 0 100 100" style="enable-background:new 0 0 100 100;" xml:space="preserve">
<style type="text/css">
	.st0{fill:#FF0000;stroke:#FF0000;stroke-width:3;stroke-miterlimit:10;}
	.st1{fill:#FF0000;}
</style>
<g>
	<line class="st0" x1="31.63" y1="24.77" x2="31.63" y2="76.86"/>
	<line class="st0" x1="31.63" y1="24.77" x2="69.64" y2="24.77"/>
	<line class="st0" x1="32.34" y1="53.63" x2="69.64" y2="53.63"/>
	<line class="st0" x1="69.64" y1="24.77" x2="50.64" y2="38.85"/>
	<line class="st0" x1="69.64" y1="53.63" x2="50.64" y2="38.85"/>
</g>
<g>
	<g>
		<path class="st1" d="M33.41,53.11c5.05,0.3,10.11,0.45,15.18,0.42c2.45-0.01,4.9-0.07,7.35-0.16c1.31-0.05,2.61-0.11,3.91-0.18
			c1.22-0.07,2.46-0.24,3.66,0.08c1.87,0.5,2.66-2.39,0.8-2.89c-2.36-0.63-4.98-0.15-7.39-0.05c-2.61,0.11-5.22,0.17-7.83,0.19
			c-5.23,0.04-10.45-0.11-15.67-0.42C31.48,50,31.49,53,33.41,53.11L33.41,53.11z"/>
	</g>
</g>
<g>
	<g>
		<path class="st1" d="M48.98,41.84c0.95,2.4,3.05,3.6,5.23,4.75c2.37,1.25,4.55,2.77,6.5,4.61c0.59,0.56,1.54,0.58,2.12,0
			c0.56-0.56,0.59-1.56,0-2.12c-1.95-1.84-4.12-3.45-6.47-4.74c-0.93-0.51-1.9-0.97-2.79-1.55c-0.46-0.3-0.66-0.43-1.07-0.86
			c-0.07-0.07-0.14-0.15-0.21-0.23c-0.31-0.35,0.05,0.09-0.1-0.13c-0.07-0.11-0.14-0.22-0.21-0.33c-0.02-0.04-0.2-0.42-0.12-0.21
			c-0.3-0.75-1-1.28-1.85-1.05C49.31,40.19,48.68,41.08,48.98,41.84L48.98,41.84z"/>
	</g>
</g>
<g>
	<g>
		<path class="st1" d="M31.51,27.2c1.9,2.98,1.21,6.8,1.69,10.15c0.29,2.01,1.09,3.89,1.15,5.94c0.06,2.15-0.36,4.25-0.77,6.35
			c-0.38,1.89,2.52,2.69,2.89,0.8c0.47-2.35,0.95-4.74,0.88-7.15c-0.06-2.21-0.88-4.2-1.2-6.36c-0.57-3.82,0.15-7.81-2.04-11.24
			C33.06,24.07,30.47,25.57,31.51,27.2L31.51,27.2z"/>
	</g>
</g>
<g>
	<g>
		<path class="st1" d="M32.26,37.62c0.03,2.25,0.6,4.33,1.55,6.35c0.33,0.7,0.61,1.32,0.4,2.08c-0.27,0.95-0.82,1.85-1.26,2.73
			c0.79-0.1,1.57-0.2,2.36-0.3c0.16,0.64,0.24,0.79,0.24,0.43c-0.01,0.14-0.01,0.12,0.02-0.07c0.06-0.3,0.09-0.6,0.07-0.9
			c-0.04-0.64-0.36-1.12-0.58-1.7c-0.32-0.85-0.07-1.82,0.12-2.67c0.18-0.79-0.24-1.62-1.05-1.85c-0.75-0.21-1.67,0.25-1.85,1.05
			c-0.31,1.41-0.61,2.96-0.09,4.36c0.13,0.34,0.33,0.66,0.45,1.01c0,0.01,0.03,0.03,0.01-0.04c-0.03-0.12-0.03,0.21-0.04,0.27
			c-0.13,0.84-0.08,1.61,0.56,2.24c0.65,0.64,1.92,0.58,2.36-0.3c1.04-2.1,2.31-4.18,1.41-6.57c-0.36-0.97-0.88-1.87-1.19-2.86
			c-0.33-1.06-0.49-2.13-0.51-3.24C35.24,35.69,32.23,35.68,32.26,37.62L32.26,37.62z"/>
	</g>
</g>
<g>
	<g>
		<path class="st1" d="M33.29,28.54c10.18,0.09,20.37,0.07,30.55-0.06c1.93-0.02,1.93-3.02,0-3c-10.18,0.12-20.37,0.14-30.55,0.06
			C31.36,25.52,31.36,28.52,33.29,28.54L33.29,28.54z"/>
	</g>
</g>
<g>
	<g>
		<path class="st1" d="M61.75,26.69c-6.27,1.94-10.61,7.26-16.65,9.59c-0.76,0.29-1.28,1.01-1.05,1.85c0.2,0.72,1.09,1.34,1.85,1.05
			c3.08-1.19,5.75-3.04,8.42-4.95c2.57-1.83,5.19-3.7,8.23-4.64C64.39,29.02,63.6,26.12,61.75,26.69L61.75,26.69z"/>
	</g>
</g>
<g>
	<g>
		<path class="st1" d="M48.91,35.88c-0.07,1.1-0.14,2.19-0.21,3.29c-0.02,0.29-0.21,1.05-0.08,1.33c-0.07-0.15,1.24-0.46,1.1,0.04
			c-0.02,0.09-0.07-0.2-0.09-0.27c-0.17-0.54-0.31-1.08-0.46-1.63c-0.05-0.2-0.11-0.39-0.15-0.59c0.02,0.07-0.35,0.22,0.01,0.01
			c0.77-0.45,1.6-1.06,2.39-1.56c1.78-1.13,3.19-2.38,3.84-4.45c0.13-0.42,0.23-0.84,0.34-1.26c0.06-0.21,0.11-0.42,0.19-0.63
			c0.04-0.07,0.06-0.14,0.07-0.22c0.2-0.31,0.08-0.25-0.34,0.18c0.06,0.12,1.23,0.05,1.45,0.06c0.58,0.03,1.15,0.05,1.73,0.08
			c0.81,0.04,1.5-0.72,1.5-1.5c0-0.84-0.69-1.46-1.5-1.5c-1.08-0.05-2.2-0.19-3.28-0.14c-1.45,0.06-2.14,1.08-2.55,2.35
			c-0.28,0.86-0.38,1.83-0.85,2.61c-0.43,0.72-1.15,1.2-1.84,1.65c-0.89,0.57-1.81,1.12-2.67,1.74c-1.1,0.79-1.64,1.82-1.41,3.19
			c0.17,1.01,0.48,2.11,0.89,3.06c0.47,1.1,1.58,1.83,2.79,1.47c1.47-0.44,1.79-1.93,1.88-3.26c0.09-1.35,0.17-2.7,0.26-4.05
			c0.05-0.81-0.73-1.5-1.5-1.5C49.56,34.38,48.96,35.07,48.91,35.88L48.91,35.88z"/>
	</g>
</g>
<g>
	<g>
		<path class="st1" d="M53.62,26.64c-6.47,0.9-13.01,1.32-19.54,1.31c-1.51,0-2.01,2.03-0.76,2.8c1.44,0.88,3.16,0.72,4.78,0.73
			c1.71,0.01,3.43,0.02,5.14,0.02c3.56,0.02,7.12,0.03,10.68,0.05c-0.13-0.98-0.27-1.96-0.4-2.95c-1.34,0.51-2.73,0.46-4.14,0.48
			c-1.64,0.03-3.28,0.09-4.92,0.19c-3.28,0.19-6.55,0.54-9.81,0.99c-1.44,0.2-1.43,2.68,0,2.89c5.92,0.89,11.84,1.71,17.8,0.78
			c0.8-0.12,1.25-1.13,1.05-1.85c-0.24-0.85-1.04-1.17-1.85-1.05c-5.38,0.84-10.87,0.02-16.2-0.78c0,0.96,0,1.93,0,2.89
			c3.25-0.45,6.52-0.76,9.8-0.93c1.57-0.08,3.15-0.13,4.73-0.15c1.47-0.02,2.95-0.06,4.34-0.58c1.52-0.57,1.39-2.94-0.4-2.95
			c-3.3-0.02-6.6-0.03-9.89-0.05c-1.58-0.01-3.17-0.01-4.75-0.02c-0.79,0-1.58-0.01-2.37-0.01c-0.72,0-1.45,0.07-2.08-0.32
			c-0.25,0.93-0.5,1.86-0.76,2.8c6.81,0.01,13.59-0.47,20.34-1.41c0.8-0.11,1.25-1.14,1.05-1.85
			C55.22,26.82,54.43,26.52,53.62,26.64L53.62,26.64z"/>
	</g>
</g>
<g>
	<g>
		<path class="st1" d="M53.68,32.05c-3.01,0.23-6.01,0.44-9.02,0.63c-1.44,0.09-2.88,0.18-4.32,0.26c-0.79,0.04-1.57,0.09-2.36,0.13
			c-0.31,0.02-0.93-0.08-1.18,0.06c-0.35,0.2-0.28-0.36,0.01,0.22c-0.3,0.73-0.6,1.47-0.9,2.2c-0.35,0.09,0.12,0.14,0.31,0.22
			c0.22,0.1,0.44,0.19,0.66,0.28c0.49,0.2,0.98,0.39,1.47,0.55c1.04,0.34,2.11,0.59,3.19,0.75c2.17,0.33,4.3,0.31,6.48,0
			c-0.27-0.96-0.53-1.93-0.8-2.89c-4.42,0.68-8.85,1.25-13.3,1.72c-1.88,0.2-1.97,2.99,0,3c2.5,0.01,5,0.03,7.5,0.04
			c2.1,0.01,4.57-0.28,6.55,0.59c0.12-0.91,0.24-1.83,0.36-2.74c-3.91,0.78-7.88,0.99-11.85,0.71c-1.93-0.14-1.92,2.86,0,3
			c4.24,0.3,8.48,0.01,12.65-0.82c1.2-0.24,1.53-2.22,0.36-2.74c-2.33-1.03-4.79-0.99-7.29-1c-2.75-0.01-5.51-0.03-8.26-0.04
			c0,1,0,2,0,3c4.71-0.49,9.41-1.1,14.09-1.82c0.8-0.12,1.25-1.13,1.05-1.85c-0.24-0.86-1.04-1.16-1.85-1.05
			c-2.06,0.29-4.21,0.2-6.24-0.25c-1-0.22-2-0.52-2.95-0.91c-0.99-0.41-1.81-0.94-2.92-0.65c-0.99,0.26-1.32,1.36-0.9,2.2
			c0.72,1.45,2.4,1.27,3.76,1.2c1.7-0.09,3.4-0.19,5.1-0.29c3.53-0.21,7.06-0.46,10.59-0.72C55.59,34.91,55.6,31.91,53.68,32.05
			L53.68,32.05z"/>
	</g>
</g>
<g>
	<g>
		<path class="st1" d="M36,40.69c-0.07,0.9,0.15,1.76,0.47,2.59c0.28,0.71,0.77,1.49,0.82,2.26c0.05,0.75-0.43,1.26-0.87,1.82
			c-0.57,0.72-1.04,1.4-1.37,2.27c-0.37,0.96,0.56,1.85,1.45,1.9c7.52,0.38,15.1-0.41,22.61-0.86c1.5-0.09,2.02-1.96,0.76-2.8
			c-2.17-1.43-4.57-2.47-6.71-3.95c-2.14-1.48-3.94-3.4-5.73-5.27c-1.15-1.2-3.34,0.39-2.36,1.82c2.08,3,4.32,5.89,6.71,8.65
			c0.35-0.85,0.71-1.71,1.06-2.56c-4.7-0.08-9.41-0.16-14.11-0.24c0.13,0.98,0.27,1.96,0.4,2.95c3.4-0.93,6.89-1.17,10.39-1.38
			c1.63-0.1,2.1-2.5,0.4-2.95c-3.57-0.94-7.25-1.4-10.94-1.36c-1.95,0.02-1.91,2.87,0,3c2.87,0.2,5.73-0.07,8.52-0.77
			c0.9-0.23,1.42-1.4,0.9-2.2c-1.01-1.53-2.58-2.03-4.33-2.21c-2.16-0.22-4.35-0.22-6.52-0.32c0.13,0.98,0.27,1.96,0.4,2.95
			c3.12-0.44,6.23-0.88,9.35-1.32c0.81-0.11,1.23-1.13,1.05-1.85c-0.23-0.87-1.05-1.16-1.85-1.05c-3.12,0.44-6.23,0.88-9.35,1.32
			c-1.74,0.24-1.21,2.87,0.4,2.95c1.69,0.08,3.38,0.15,5.07,0.23c0.93,0.04,2.6-0.09,3.18,0.81c0.3-0.73,0.6-1.47,0.9-2.2
			c-2.54,0.64-5.11,0.84-7.72,0.66c0,1,0,2,0,3c3.44-0.04,6.82,0.37,10.14,1.25c0.13-0.98,0.27-1.96,0.4-2.95
			c-3.76,0.23-7.54,0.49-11.19,1.49c-1.64,0.45-1.29,2.92,0.4,2.95c4.7,0.08,9.41,0.16,14.11,0.24c1.38,0.02,1.88-1.62,1.06-2.56
			c-2.23-2.57-4.31-5.25-6.24-8.04c-0.79,0.61-1.57,1.21-2.36,1.82c1.89,1.97,3.79,3.91,6.01,5.51c2.22,1.6,4.76,2.67,7.04,4.18
			c0.25-0.93,0.5-1.86,0.76-2.8c-7.51,0.46-15.09,1.24-22.61,0.86c0.48,0.63,0.96,1.27,1.45,1.9c0.29-0.75,0.96-1.35,1.42-2
			c0.55-0.77,0.91-1.66,0.93-2.61c0.03-1.83-1.44-3.33-1.31-5.12C39.14,38.76,36.14,38.77,36,40.69L36,40.69z"/>
	</g>
</g>
</svg>
