<?xml version="1.0" encoding="utf-8"?>
<!-- Generator: Adobe Illustrator 24.1.2, SVG Export Plug-In . SVG Version: 6.00 Build 0)  -->
<svg version="1.1" id="Layer_1" xmlns="http://www.w3.org/2000/svg" xmlns:xlink="http://www.w3.org/1999/xlink" x="0px" y="0px"
	 viewBox="0 0 100 100" style="enable-background:new 0 0 100 100;" xml:space="preserve">
<style type="text/css">
	.st0{fill:#FF0000;}
</style>
<g>
	<path d="M13.95,31.62v-0.84h12.57v0.84H13.95z M13.95,33.29v-0.84h12.57v0.84H13.95z M13.95,34.96v-0.84h12.57v0.84H13.95z
		 M17.3,35.41h0.84V47.5H17.3V35.41z M18.97,35.41h0.84V47.5h-0.84V35.41z M20.65,35.41h0.84V47.5h-0.84V35.41z M22.32,35.41h0.84
		V47.5h-0.84V35.41z"/>
	<path d="M28.64,42.71c-0.49-1.13-0.73-2.32-0.73-3.57s0.24-2.44,0.73-3.57s1.14-2.11,1.97-2.93s1.8-1.47,2.94-1.96
		s2.33-0.73,3.58-0.73s2.44,0.24,3.58,0.73c1.14,0.49,2.12,1.14,2.94,1.96c0.82,0.82,1.48,1.8,1.97,2.93s0.73,2.32,0.73,3.57
		s-0.24,2.44-0.73,3.57s-1.14,2.11-1.97,2.93c-0.82,0.82-1.8,1.47-2.94,1.96c-1.14,0.49-2.33,0.73-3.58,0.73s-2.44-0.24-3.58-0.73
		s-2.12-1.14-2.94-1.96S29.13,43.84,28.64,42.71z M29.41,35.9c-0.44,1.03-0.66,2.11-0.66,3.24s0.22,2.21,0.66,3.24
		c0.44,1.03,1.04,1.92,1.79,2.67c0.75,0.75,1.64,1.34,2.68,1.78c1.04,0.44,2.12,0.66,3.25,0.66s2.22-0.22,3.25-0.66
		c1.04-0.44,1.93-1.04,2.68-1.78c0.75-0.75,1.34-1.64,1.79-2.67c0.44-1.03,0.66-2.11,0.66-3.24s-0.22-2.21-0.66-3.24
		c-0.44-1.03-1.04-1.92-1.79-2.67c-0.75-0.75-1.64-1.34-2.68-1.78c-1.04-0.44-2.12-0.66-3.25-0.66s-2.22,0.22-3.25,0.66
		c-1.04,0.44-1.93,1.04-2.68,1.78C30.45,33.97,29.85,34.86,29.41,35.9z M30.19,42.07c-0.4-0.93-0.6-1.9-0.6-2.93s0.2-2,0.6-2.93
		s0.94-1.73,1.61-2.4s1.47-1.2,2.4-1.6c0.93-0.4,1.91-0.6,2.93-0.6s2,0.2,2.93,0.6c0.93,0.4,1.73,0.93,2.4,1.6
		c0.67,0.67,1.21,1.47,1.61,2.4c0.4,0.93,0.6,1.9,0.6,2.93s-0.2,2-0.6,2.93c-0.4,0.93-0.94,1.73-1.61,2.4
		c-0.67,0.67-1.47,1.2-2.4,1.6s-1.91,0.6-2.93,0.6s-2-0.2-2.93-0.6s-1.73-0.93-2.4-1.6S30.58,43,30.19,42.07z M30.95,36.55
		c-0.35,0.82-0.53,1.69-0.53,2.59s0.18,1.77,0.53,2.59s0.83,1.54,1.43,2.14c0.6,0.6,1.31,1.08,2.14,1.43s1.69,0.53,2.6,0.53
		s1.77-0.18,2.6-0.53s1.54-0.83,2.14-1.43c0.6-0.6,1.08-1.31,1.43-2.14c0.35-0.82,0.53-1.69,0.53-2.59s-0.18-1.77-0.53-2.59
		c-0.35-0.82-0.83-1.54-1.43-2.14s-1.31-1.08-2.14-1.43c-0.83-0.35-1.69-0.53-2.6-0.53s-1.77,0.18-2.6,0.53
		c-0.83,0.35-1.54,0.83-2.14,1.43C31.78,35.01,31.31,35.72,30.95,36.55z M32.05,42.08c-0.52-0.9-0.79-1.88-0.79-2.94
		c0-1.06,0.26-2.04,0.79-2.94c0.52-0.9,1.24-1.61,2.14-2.13s1.88-0.78,2.94-0.78s2.04,0.26,2.94,0.78c0.9,0.52,1.61,1.23,2.14,2.13
		c0.52,0.9,0.79,1.88,0.79,2.94c0,1.06-0.26,2.04-0.79,2.94c-0.52,0.9-1.24,1.61-2.14,2.13c-0.9,0.52-1.88,0.78-2.94,0.78
		s-2.04-0.26-2.94-0.78S32.57,42.98,32.05,42.08z M33.57,35.6c-0.98,0.98-1.47,2.16-1.47,3.54s0.49,2.56,1.47,3.54
		c0.98,0.98,2.17,1.47,3.56,1.47s2.57-0.49,3.56-1.47c0.98-0.98,1.47-2.16,1.47-3.54s-0.49-2.56-1.47-3.54s-2.17-1.47-3.56-1.47
		S34.55,34.62,33.57,35.6z M34.17,42.1c-0.82-0.82-1.23-1.8-1.23-2.95s0.41-2.14,1.23-2.95c0.82-0.82,1.81-1.22,2.96-1.22
		c1.16,0,2.14,0.41,2.96,1.22c0.82,0.82,1.23,1.8,1.23,2.95s-0.41,2.14-1.23,2.95c-0.82,0.82-1.81,1.22-2.96,1.22
		C35.97,43.32,34.98,42.91,34.17,42.1z M34.76,36.78c-0.66,0.65-0.98,1.44-0.98,2.36s0.33,1.71,0.98,2.36
		c0.66,0.65,1.44,0.98,2.37,0.98s1.71-0.33,2.37-0.98c0.66-0.65,0.98-1.44,0.98-2.36s-0.33-1.71-0.98-2.36
		c-0.66-0.65-1.44-0.98-2.37-0.98S35.41,36.13,34.76,36.78z"/>
	<path d="M60.47,47.5H50.8V30.78h9.67c1.47,0,2.85,0.37,4.13,1.12c1.28,0.75,2.29,1.76,3.05,3.04c0.76,1.28,1.13,2.67,1.13,4.17
		c0,1.14-0.22,2.23-0.67,3.26s-1.04,1.93-1.79,2.68c-0.75,0.75-1.63,1.34-2.66,1.78C62.64,47.28,61.57,47.5,60.47,47.5z
		 M51.64,46.66h8.83c1.33,0,2.56-0.33,3.7-1c1.14-0.67,2.05-1.58,2.73-2.75c0.68-1.16,1.02-2.43,1.02-3.8c0-1.35-0.34-2.6-1.02-3.76
		c-0.68-1.16-1.59-2.07-2.73-2.74c-1.14-0.67-2.38-1-3.7-1h-8.83V46.66z M52.48,45.83V32.45h8c1.17,0,2.26,0.3,3.28,0.89
		c1.01,0.6,1.82,1.41,2.41,2.43c0.6,1.03,0.9,2.14,0.9,3.34c0,1.22-0.3,2.34-0.9,3.37s-1.4,1.85-2.41,2.44
		c-1.01,0.6-2.1,0.89-3.28,0.89H52.48z M53.31,44.99h7.16c1.02,0,1.97-0.26,2.85-0.78c0.88-0.52,1.57-1.23,2.09-2.14
		c0.52-0.91,0.78-1.89,0.78-2.96c0-1.04-0.26-2.02-0.78-2.91c-0.52-0.9-1.22-1.61-2.1-2.13c-0.88-0.52-1.83-0.78-2.85-0.78h-7.16
		V44.99z M54.15,44.16V34.13h6.32c1.33,0,2.47,0.49,3.43,1.47c0.96,0.98,1.44,2.15,1.44,3.52c0,1.4-0.48,2.59-1.43,3.57
		c-0.95,0.98-2.1,1.47-3.43,1.47H54.15z M54.99,43.32h5.48c1.1,0,2.04-0.41,2.83-1.22c0.78-0.82,1.17-1.81,1.17-2.98
		c0-1.15-0.39-2.12-1.18-2.94c-0.79-0.81-1.73-1.22-2.82-1.22h-5.48V43.32z M55.83,42.48V35.8h4.64c0.86,0,1.6,0.33,2.22,0.98
		c0.62,0.65,0.93,1.43,0.93,2.34c0,0.94-0.31,1.74-0.92,2.39c-0.61,0.65-1.35,0.98-2.22,0.98H55.83z M56.67,41.65h3.81
		c0.63,0,1.17-0.24,1.61-0.73c0.45-0.49,0.67-1.09,0.67-1.8c0-0.68-0.22-1.27-0.67-1.75c-0.45-0.49-0.98-0.73-1.61-0.73h-3.81V41.65
		z"/>
	<path d="M70.95,42.71c-0.49-1.13-0.73-2.32-0.73-3.57s0.25-2.44,0.73-3.57c0.49-1.13,1.14-2.11,1.97-2.93s1.8-1.47,2.94-1.96
		s2.33-0.73,3.58-0.73s2.44,0.24,3.58,0.73s2.12,1.14,2.94,1.96s1.48,1.8,1.97,2.93c0.49,1.13,0.73,2.32,0.73,3.57
		s-0.24,2.44-0.73,3.57c-0.49,1.13-1.14,2.11-1.97,2.93s-1.8,1.47-2.94,1.96s-2.33,0.73-3.58,0.73s-2.44-0.24-3.58-0.73
		s-2.12-1.14-2.94-1.96S71.43,43.84,70.95,42.71z M71.71,35.9c-0.44,1.03-0.66,2.11-0.66,3.24s0.22,2.21,0.66,3.24
		s1.04,1.92,1.79,2.67c0.75,0.75,1.64,1.34,2.68,1.78c1.04,0.44,2.12,0.66,3.25,0.66s2.22-0.22,3.25-0.66
		c1.04-0.44,1.93-1.04,2.68-1.78c0.75-0.75,1.34-1.64,1.79-2.67s0.66-2.11,0.66-3.24s-0.22-2.21-0.66-3.24s-1.04-1.92-1.79-2.67
		c-0.75-0.75-1.64-1.34-2.68-1.78c-1.04-0.44-2.12-0.66-3.25-0.66s-2.22,0.22-3.25,0.66c-1.04,0.44-1.93,1.04-2.68,1.78
		C72.75,33.97,72.16,34.86,71.71,35.9z M72.49,42.07c-0.4-0.93-0.6-1.9-0.6-2.93s0.2-2,0.6-2.93s0.93-1.73,1.61-2.4
		c0.67-0.67,1.47-1.2,2.4-1.6c0.93-0.4,1.91-0.6,2.93-0.6c1.02,0,2,0.2,2.93,0.6c0.93,0.4,1.73,0.93,2.4,1.6s1.21,1.47,1.61,2.4
		s0.6,1.9,0.6,2.93s-0.2,2-0.6,2.93s-0.94,1.73-1.61,2.4s-1.47,1.2-2.4,1.6c-0.93,0.4-1.91,0.6-2.93,0.6c-1.02,0-2-0.2-2.93-0.6
		c-0.93-0.4-1.73-0.93-2.4-1.6C73.42,43.79,72.89,43,72.49,42.07z M73.26,36.55c-0.35,0.82-0.53,1.69-0.53,2.59s0.18,1.77,0.53,2.59
		c0.35,0.82,0.83,1.54,1.43,2.14c0.6,0.6,1.32,1.08,2.14,1.43s1.69,0.53,2.6,0.53c0.91,0,1.78-0.18,2.6-0.53s1.54-0.83,2.14-1.43
		c0.6-0.6,1.08-1.31,1.43-2.14c0.35-0.82,0.53-1.69,0.53-2.59s-0.18-1.77-0.53-2.59c-0.35-0.82-0.83-1.54-1.43-2.14
		c-0.6-0.6-1.32-1.08-2.14-1.43c-0.83-0.35-1.69-0.53-2.6-0.53c-0.91,0-1.77,0.18-2.6,0.53c-0.83,0.35-1.54,0.83-2.14,1.43
		C74.09,35.01,73.61,35.72,73.26,36.55z M74.35,42.08c-0.52-0.9-0.79-1.88-0.79-2.94c0-1.06,0.26-2.04,0.79-2.94
		s1.24-1.61,2.14-2.13c0.9-0.52,1.88-0.78,2.94-0.78c1.06,0,2.04,0.26,2.94,0.78c0.9,0.52,1.61,1.23,2.14,2.13s0.79,1.88,0.79,2.94
		c0,1.06-0.26,2.04-0.79,2.94c-0.52,0.9-1.24,1.61-2.14,2.13c-0.9,0.52-1.88,0.78-2.94,0.78c-1.06,0-2.04-0.26-2.94-0.78
		C75.58,43.69,74.87,42.98,74.35,42.08z M75.87,35.6c-0.98,0.98-1.47,2.16-1.47,3.54s0.49,2.56,1.47,3.54
		c0.98,0.98,2.17,1.47,3.55,1.47s2.57-0.49,3.56-1.47c0.98-0.98,1.47-2.16,1.47-3.54s-0.49-2.56-1.47-3.54s-2.17-1.47-3.56-1.47
		S76.86,34.62,75.87,35.6z M76.47,42.1c-0.82-0.82-1.23-1.8-1.23-2.95s0.41-2.14,1.23-2.95c0.82-0.82,1.81-1.22,2.96-1.22
		c1.16,0,2.14,0.41,2.96,1.22c0.82,0.82,1.23,1.8,1.23,2.95s-0.41,2.14-1.23,2.95s-1.81,1.22-2.96,1.22
		C78.27,43.32,77.29,42.91,76.47,42.1z M77.06,36.78c-0.66,0.65-0.98,1.44-0.98,2.36s0.33,1.71,0.98,2.36
		c0.66,0.65,1.45,0.98,2.37,0.98c0.92,0,1.71-0.33,2.37-0.98c0.66-0.65,0.98-1.44,0.98-2.36s-0.33-1.71-0.98-2.36
		c-0.66-0.65-1.45-0.98-2.37-0.98C78.51,35.8,77.72,36.13,77.06,36.78z"/>
</g>
<g>
	<g>
		<path class="st0" d="M40.7,60.88c-0.97,0-1.66-0.33-2.07-0.99C38.21,59.23,38,58.4,38,57.42c0-1.08,0.2-2.35,0.61-3.83
			s0.94-3.04,1.6-4.67c0.66-1.64,1.39-3.23,2.17-4.79c0.79-1.56,1.57-2.97,2.36-4.25c0.79-1.28,1.51-2.3,2.17-3.06
			c0.66-0.76,1.18-1.14,1.57-1.14c0.25,0,0.45,0.14,0.61,0.42s0.28,0.62,0.37,1.01c0.09,0.39,0.13,0.75,0.13,1.06
			c0,0.6-0.15,1.4-0.46,2.37c-0.3,0.97-0.73,2.06-1.28,3.26c-0.55,1.2-1.2,2.41-1.95,3.63c-0.75,1.22-1.57,2.39-2.46,3.51
			c-0.89,1.12-1.83,2.08-2.81,2.89c-0.13,0.61-0.24,1.19-0.32,1.76s-0.12,1.12-0.12,1.63c0,0.87,0.12,1.52,0.37,1.95
			c0.25,0.43,0.62,0.64,1.11,0.64c0.61,0,1.21-0.27,1.8-0.81s1.16-1.22,1.69-2.03c0.53-0.82,0.98-1.66,1.36-2.54l0.51,0.27
			c-0.9,1.91-1.88,3.41-2.93,4.52C43.05,60.33,41.91,60.88,40.7,60.88z M40.94,52.68c0.79-0.78,1.55-1.69,2.29-2.71
			c0.74-1.02,1.43-2.08,2.07-3.18c0.64-1.1,1.21-2.16,1.7-3.19c0.49-1.03,0.88-1.95,1.15-2.77c0.27-0.82,0.4-1.45,0.4-1.9
			c0-0.22-0.03-0.37-0.08-0.44c-0.06-0.07-0.11-0.1-0.15-0.1c-0.18,0-0.49,0.29-0.93,0.86c-0.44,0.57-0.95,1.34-1.53,2.3
			c-0.58,0.96-1.18,2.06-1.79,3.29c-0.61,1.23-1.19,2.52-1.74,3.87C41.78,50.06,41.32,51.38,40.94,52.68z"/>
		<path class="st0" d="M48.28,60.75c-0.88,0-1.53-0.27-1.95-0.82s-0.64-1.22-0.64-2c0-0.52,0.1-1.17,0.29-1.95
			c0.19-0.78,0.44-1.61,0.76-2.47c0.31-0.86,0.68-1.67,1.1-2.44c0.42-0.76,0.86-1.38,1.33-1.87c0.47-0.48,0.93-0.72,1.38-0.72
			c0.2,0,0.38,0.06,0.52,0.19c0.15,0.12,0.22,0.31,0.22,0.55c0,0.27-0.17,0.71-0.52,1.31c-0.35,0.6-0.76,1.3-1.23,2.08
			s-0.88,1.61-1.23,2.47c-0.35,0.86-0.52,1.69-0.52,2.47c0,0.81,0.13,1.34,0.4,1.61c0.27,0.27,0.68,0.4,1.25,0.4
			c0.76,0,1.58-0.38,2.44-1.14s1.78-2.1,2.75-4l0.3,0.34c-0.65,1.93-1.59,3.41-2.81,4.44C50.88,60.23,49.61,60.75,48.28,60.75z
			 M52.32,45.35c-0.36,0-0.68-0.09-0.96-0.27c-0.28-0.18-0.42-0.46-0.42-0.84c0-0.47,0.28-0.88,0.83-1.23
			c0.55-0.35,1.09-0.52,1.63-0.52c0.34,0,0.61,0.08,0.81,0.24c0.2,0.16,0.3,0.43,0.3,0.81c0,0.43-0.23,0.84-0.69,1.23
			C53.36,45.15,52.86,45.35,52.32,45.35z"/>
		<path class="st0" d="M57.51,61.58c-1.06,0-1.89-0.23-2.51-0.69c-0.62-0.46-1.06-1.03-1.31-1.7c-0.26-0.67-0.39-1.34-0.39-2.02
			c0-0.67,0.09-1.19,0.27-1.55s0.4-0.63,0.66-0.81c0.26-0.18,0.5-0.31,0.74-0.4c0.24-0.09,0.4-0.18,0.49-0.27
			c0.67-0.74,1.29-1.51,1.85-2.32c0.56-0.81,1.06-1.66,1.48-2.56v-0.4c0-0.83,0.14-1.42,0.42-1.76c0.28-0.35,0.58-0.52,0.89-0.52
			c0.18,0,0.31,0.05,0.4,0.13s0.13,0.19,0.13,0.3c0,0.11-0.03,0.29-0.1,0.54s-0.1,0.56-0.1,0.94c0,0.74,0.15,1.54,0.44,2.4
			c0.29,0.86,0.58,1.77,0.88,2.72s0.44,1.94,0.44,2.97c0,0.29-0.02,0.58-0.05,0.86c-0.03,0.28-0.08,0.54-0.15,0.79
			c0.79-0.13,1.53-0.49,2.22-1.06c0.7-0.57,1.37-1.48,2.02-2.74l0.3,0.34c-0.43,1.23-1.07,2.17-1.92,2.81
			c-0.85,0.64-1.79,1.04-2.8,1.19c-0.36,0.96-0.93,1.67-1.7,2.12C59.35,61.36,58.48,61.58,57.51,61.58z M57.58,60.41
			c0.27,0,0.63-0.09,1.08-0.27s0.8-0.64,1.04-1.38c-0.94-0.18-1.78-0.55-2.51-1.11c-0.73-0.56-1.28-1.12-1.63-1.68
			c-0.49,0.02-0.74,0.42-0.74,1.18c0,0.81,0.24,1.55,0.72,2.24C56.03,60.07,56.71,60.41,57.58,60.41z M59.87,58.22
			c0.04-0.22,0.08-0.46,0.1-0.71c0.02-0.25,0.03-0.54,0.03-0.87c0-1.05-0.13-2.1-0.39-3.14c-0.26-1.04-0.48-2.02-0.66-2.94
			c-0.52,0.85-1.06,1.66-1.63,2.44c-0.57,0.77-1.12,1.42-1.63,1.93c0.34,0.72,0.86,1.39,1.57,2.02C57.97,57.57,58.84,58,59.87,58.22
			z"/>
		<path class="st0" d="M68.46,61.42c-0.97,0-1.71-0.28-2.22-0.84c-0.52-0.56-0.78-1.39-0.78-2.49c0-0.99,0.19-2.2,0.56-3.65
			c0.37-1.45,0.84-2.93,1.4-4.45c-0.22-0.04-0.44-0.08-0.64-0.12s-0.39-0.08-0.57-0.15v-0.61c0.18,0.02,0.39,0.05,0.64,0.07
			c0.25,0.02,0.53,0.05,0.84,0.07c0.47-1.21,0.98-2.38,1.52-3.51c0.54-1.13,1.07-2.14,1.6-3.03c0.53-0.89,1.03-1.59,1.52-2.12
			c0.48-0.53,0.89-0.79,1.23-0.79c0.18,0,0.34,0.06,0.49,0.19c0.15,0.12,0.22,0.31,0.22,0.55c0,0.38-0.24,1-0.71,1.87
			c-0.47,0.86-1.06,1.89-1.75,3.08c-0.7,1.19-1.37,2.48-2.02,3.87c0.2,0,0.41,0,0.62,0c0.21,0,0.42,0,0.62,0
			c0.74,0,1.52-0.01,2.34-0.03c0.82-0.02,1.64-0.08,2.48-0.17v0.6c-1.24,0.13-2.34,0.24-3.32,0.3s-1.85,0.1-2.61,0.1
			c-0.09,0-0.17,0-0.25,0c-0.08,0-0.16,0-0.25,0c-0.52,1.19-0.96,2.41-1.31,3.66c-0.36,1.26-0.54,2.48-0.54,3.66
			c0,0.96,0.15,1.65,0.44,2.07s0.78,0.62,1.45,0.62c1.17,0,2.31-0.52,3.44-1.55c1.12-1.03,2.11-2.43,2.97-4.2l0.44,0.34
			c-0.54,1.25-1.22,2.39-2.04,3.4c-0.82,1.01-1.72,1.8-2.71,2.39S69.52,61.42,68.46,61.42z"/>
	</g>
</g>
</svg>
